<svg width="24" height="24" viewBox="0 0 24 24" fill="none" xmlns="http://www.w3.org/2000/svg">
<path d="M23.613 5.81136H22.6931C22.8707 5.12503 22.8888 4.40715 22.746 3.71275C22.6032 3.01835 22.3033 2.36587 21.8693 1.8053C21.4353 1.24474 20.8787 0.790976 20.2422 0.478797C19.6057 0.166618 18.9062 0.00430843 18.1973 0.00430843C17.4884 0.00430843 16.7889 0.166618 16.1524 0.478797C15.5159 0.790976 14.9593 1.24474 14.5253 1.8053C14.0913 2.36587 13.7914 3.01835 13.6486 3.71275C13.5058 4.40715 13.5239 5.12503 13.7014 5.81136H9.06764L3.93732 0.681007C3.72381 0.465765 3.4699 0.294806 3.19016 0.177941C2.91041 0.0610769 2.61034 0.000607866 2.30717 4.55947e-06C2.00399 -0.000598747 1.70369 0.0586756 1.42348 0.174426C1.14327 0.290176 0.888678 0.460123 0.674315 0.674514C0.459951 0.888905 0.290036 1.14352 0.17432 1.42374C0.0586039 1.70397 -0.000634211 2.00428 5.12028e-06 2.30746C0.000644452 2.61064 0.0611486 2.9107 0.178045 3.19043C0.294942 3.47017 0.46593 3.72406 0.681196 3.93755L0.851858 4.10782C0.310873 4.71071 0.0101096 5.49127 0.00667386 6.3013V20.9041C0.00626657 21.3107 0.0860668 21.7135 0.241507 22.0893C0.396947 22.4651 0.624974 22.8066 0.912537 23.0941C1.2001 23.3817 1.54155 23.6097 1.91735 23.7652C2.29315 23.9206 2.69591 24.0004 3.10259 24H23.613C23.7156 24 23.8141 23.9592 23.8867 23.8867C23.9592 23.8141 24 23.7156 24 23.613V6.19836C24 6.09572 23.9592 5.99729 23.8867 5.92471C23.8141 5.85214 23.7156 5.81136 23.613 5.81136ZM14.3512 4.19219C14.4654 3.21024 14.9511 2.30923 15.7085 1.67402C16.466 1.0388 17.4378 0.717546 18.4246 0.776162C19.4115 0.834778 20.3384 1.26882 21.0154 1.98924C21.6923 2.70966 22.0679 3.66183 22.0651 4.65039C22.0681 5.51463 21.7783 6.35441 21.2427 7.03271C20.5551 7.89862 20.1649 8.96312 20.1301 10.0683H19.3561V7.74632H19.7431C19.9727 7.74632 20.1972 7.67823 20.3881 7.55066C20.579 7.42309 20.7278 7.24178 20.8157 7.02963C20.9036 6.81749 20.9266 6.58406 20.8818 6.35885C20.837 6.13364 20.7264 5.92678 20.564 5.76441C20.4017 5.60205 20.1948 5.49148 19.9696 5.44668C19.7444 5.40188 19.511 5.42487 19.2988 5.51274C19.0867 5.60062 18.9054 5.74942 18.7778 5.94034C18.6502 6.13127 18.5822 6.35573 18.5822 6.58535V6.97234H17.8082V6.58535C17.8082 6.35573 17.7401 6.13127 17.6125 5.94034C17.4849 5.74942 17.3036 5.60062 17.0915 5.51274C16.8793 5.42487 16.6459 5.40188 16.4207 5.44668C16.1955 5.49148 15.9886 5.60205 15.8263 5.76441C15.6639 5.92678 15.5533 6.13364 15.5085 6.35885C15.4637 6.58406 15.4867 6.81749 15.5746 7.02963C15.6625 7.24178 15.8113 7.42309 16.0022 7.55066C16.1931 7.67823 16.4176 7.74632 16.6472 7.74632H17.0342V10.0683H16.2602C16.2207 8.95188 15.8233 7.87775 15.1267 7.00446C14.5109 6.20428 14.2325 5.19492 14.3512 4.19219ZM18.9691 12.3902C18.9691 12.5955 18.8876 12.7924 18.7424 12.9375C18.5973 13.0827 18.4004 13.1642 18.1952 13.1642C17.9899 13.1642 17.793 13.0827 17.6479 12.9375C17.5027 12.7924 17.4212 12.5955 17.4212 12.3902H18.9691ZM16.6472 11.6162C16.5446 11.6162 16.4461 11.5755 16.3736 11.5029C16.301 11.4303 16.2602 11.3319 16.2602 11.2293V10.8423H20.1301V11.2293C20.1301 11.3319 20.0893 11.4303 20.0168 11.5029C19.9442 11.5755 19.8458 11.6162 19.7431 11.6162H16.6472ZM17.0342 6.97234H16.6472C16.5707 6.97234 16.4958 6.94964 16.4322 6.90712C16.3686 6.8646 16.319 6.80416 16.2897 6.73344C16.2604 6.66273 16.2527 6.58492 16.2677 6.50985C16.2826 6.43478 16.3194 6.36582 16.3736 6.3117C16.4277 6.25758 16.4966 6.22072 16.5717 6.20579C16.6468 6.19086 16.7246 6.19852 16.7953 6.22781C16.866 6.2571 16.9265 6.30671 16.969 6.37035C17.0115 6.43399 17.0342 6.50881 17.0342 6.58535V6.97234ZM18.5822 10.0683H17.8082V7.74632H18.5822V10.0683ZM19.3561 6.97234V6.58535C19.3561 6.50881 19.3788 6.43399 19.4213 6.37035C19.4639 6.30671 19.5243 6.2571 19.595 6.22781C19.6657 6.19852 19.7435 6.19086 19.8186 6.20579C19.8937 6.22072 19.9626 6.25758 20.0168 6.3117C20.0709 6.36582 20.1077 6.43478 20.1227 6.50985C20.1376 6.58492 20.1299 6.66273 20.1006 6.73344C20.0714 6.80416 20.0218 6.8646 19.9581 6.90712C19.8945 6.94964 19.8197 6.97234 19.7431 6.97234H19.3561ZM11.4263 11.4258L10.3536 11.1043L11.1044 10.3535L11.4263 11.4258ZM9.51151 10.8516L8.52043 10.5543V9.68129H9.29441C9.39705 9.68129 9.49548 9.64051 9.56806 9.56794C9.64063 9.49536 9.6814 9.39693 9.6814 9.29429V8.52031H10.5545L10.8517 9.51178L9.51151 10.8516ZM3.64979 5.81136L4.45705 5.0041L8.36022 8.9073H8.13345C8.03081 8.9073 7.93238 8.94807 7.8598 9.02065C7.78723 9.09322 7.74646 9.19166 7.74646 9.29429V9.90768L3.64979 5.81136ZM3.10259 5.26416L2.48882 4.65039L4.65054 2.48865L5.26431 3.10242L3.10259 5.26416ZM9.29441 7.74632C9.19178 7.74632 9.09334 7.7871 9.02077 7.85967C8.9482 7.93225 8.90742 8.03068 8.90742 8.13332V8.36009L5.00425 4.45689L5.81151 3.64962L9.90818 7.74632H9.29441ZM2.30926 0.780464C2.51008 0.77992 2.70901 0.819213 2.89454 0.89607C3.08007 0.972926 3.24851 1.08582 3.39012 1.22821L4.10334 1.94144L1.94162 4.10279L1.2284 3.38957C1.01457 3.17584 0.868946 2.90349 0.809938 2.60698C0.750931 2.31046 0.781196 2.00311 0.896904 1.7238C1.01261 1.44449 1.20856 1.20578 1.45997 1.03786C1.71137 0.869943 2.00693 0.780367 2.30926 0.780464ZM1.39983 4.6558L5.42452 8.68052V18.8561C5.37731 18.8027 5.3279 18.7511 5.2763 18.7013C4.98547 18.4113 4.63928 18.1828 4.25834 18.0294C3.87739 17.8759 3.46948 17.8007 3.05886 17.8081C2.6258 17.8163 2.19927 17.9152 1.80684 18.0985C1.41442 18.2818 1.06482 18.5455 0.780652 18.8724V6.3013C0.782824 5.69625 1.0026 5.11219 1.39983 4.6558ZM23.226 23.226H3.10259C2.79488 23.226 2.49023 23.1649 2.20636 23.0462C1.92248 22.9274 1.66504 22.7535 1.44899 22.5343C1.23294 22.3152 1.0626 22.0554 0.947868 21.7698C0.833133 21.4843 0.776293 21.1788 0.780652 20.8712C0.8 20.2703 1.04733 19.6993 1.4724 19.2741C1.89747 18.849 2.46842 18.6016 3.06931 18.5821H3.10259C3.7184 18.5821 4.309 18.8267 4.74444 19.2622C5.17989 19.6976 5.42452 20.2882 5.42452 20.9041C5.42452 21.0067 5.46529 21.1051 5.53787 21.1777C5.61044 21.2503 5.70887 21.2911 5.81151 21.2911C5.91415 21.2911 6.01258 21.2503 6.08515 21.1777C6.15773 21.1051 6.1985 21.0067 6.1985 20.9041V9.45451L7.85984 11.1159C7.90514 11.1612 7.96099 11.1946 8.02238 11.213L11.8923 12.374C11.9283 12.3847 11.9657 12.3902 12.0033 12.3902C12.0637 12.3902 12.1231 12.3761 12.177 12.3491C12.2309 12.322 12.2778 12.2827 12.3138 12.2343C12.3498 12.1859 12.374 12.1298 12.3845 12.0704C12.3949 12.011 12.3914 11.95 12.3741 11.8922L11.2131 8.02225C11.1947 7.96086 11.1613 7.90501 11.116 7.85971L9.84162 6.58535H13.977C14.121 6.90107 14.3 7.19963 14.5106 7.47543C15.1269 8.24184 15.4702 9.19177 15.4862 10.1751V11.2293C15.4862 11.5372 15.6086 11.8325 15.8263 12.0502C16.044 12.2679 16.3393 12.3902 16.6472 12.3902C16.6472 12.8008 16.8103 13.1945 17.1006 13.4848C17.3909 13.7751 17.7846 13.9382 18.1952 13.9382C18.6057 13.9382 18.9994 13.7751 19.2897 13.4848C19.58 13.1945 19.7431 12.8008 19.7431 12.3902C20.051 12.3902 20.3463 12.2679 20.564 12.0502C20.7818 11.8325 20.9041 11.5372 20.9041 11.2293V10.1732C20.9148 9.20478 21.2484 8.26768 21.8518 7.51026C22.0751 7.22496 22.2644 6.91456 22.4157 6.58535H23.226V23.226Z" fill="black"/>
<path d="M15.0456 19.5955C15.1509 19.3948 15.238 19.1851 15.3061 18.9689H15.8734C15.976 18.9689 16.0745 18.9282 16.147 18.8556C16.2196 18.783 16.2604 18.6846 16.2604 18.582V17.034C16.2604 16.9313 16.2196 16.8329 16.147 16.7603C16.0745 16.6878 15.976 16.647 15.8734 16.647H15.3061C15.238 16.4308 15.1509 16.2211 15.0456 16.0205L15.4477 15.6188C15.5203 15.5462 15.561 15.4478 15.561 15.3452C15.561 15.2425 15.5203 15.1441 15.4477 15.0715L14.3529 13.9767C14.2804 13.9042 14.1819 13.8634 14.0793 13.8634C13.9767 13.8634 13.8783 13.9042 13.8057 13.9767L13.404 14.3781C13.2033 14.2731 12.9936 14.1863 12.7775 14.1184V13.5511C12.7775 13.4484 12.7367 13.35 12.6641 13.2774C12.5916 13.2048 12.4931 13.1641 12.3905 13.1641H10.8425C10.7399 13.1641 10.6415 13.2048 10.5689 13.2774C10.4963 13.35 10.4556 13.4484 10.4556 13.5511V14.1184C10.2394 14.1864 10.0298 14.2734 9.82902 14.3784L9.42733 13.9767C9.35339 13.9068 9.25549 13.8679 9.15373 13.8679C9.05196 13.8679 8.95406 13.9068 8.88013 13.9767L7.78533 15.0715C7.71278 15.1441 7.67203 15.2425 7.67203 15.3452C7.67203 15.4478 7.71278 15.5462 7.78533 15.6188L8.18703 16.0205C8.08191 16.2212 7.99488 16.4308 7.92697 16.647H7.35965C7.25701 16.647 7.15858 16.6878 7.086 16.7603C7.01343 16.8329 6.97266 16.9313 6.97266 17.034V18.582C6.97266 18.6846 7.01343 18.783 7.086 18.8556C7.15858 18.9282 7.25701 18.9689 7.35965 18.9689H7.92697C7.995 19.1851 8.08216 19.3948 8.18742 19.5955L7.78533 19.9972C7.71278 20.0698 7.67203 20.1682 7.67203 20.2708C7.67203 20.3734 7.71278 20.4718 7.78533 20.5444L8.88013 21.6392C8.9527 21.7117 9.05111 21.7525 9.15373 21.7525C9.25634 21.7525 9.35476 21.7117 9.42733 21.6392L9.82902 21.2375C10.0297 21.3426 10.2394 21.4296 10.4556 21.4976V22.0649C10.4556 22.1675 10.4963 22.266 10.5689 22.3385C10.6415 22.4111 10.7399 22.4519 10.8425 22.4519H12.3905C12.4931 22.4519 12.5916 22.4111 12.6641 22.3385C12.7367 22.266 12.7775 22.1675 12.7775 22.0649V21.4976C12.9937 21.4295 13.2033 21.3424 13.404 21.2371L13.8057 21.6392C13.8797 21.7091 13.9776 21.7481 14.0793 21.7481C14.1811 21.7481 14.279 21.7091 14.3529 21.6392L15.4477 20.5444C15.5203 20.4718 15.561 20.3734 15.561 20.2708C15.561 20.1682 15.5203 20.0698 15.4477 19.9972L15.0456 19.5955ZM14.635 18.496C14.5576 18.8352 14.4232 19.1588 14.2376 19.4531C14.1907 19.5273 14.1704 19.6153 14.1801 19.7026C14.1898 19.7898 14.2289 19.8712 14.291 19.9333L14.6285 20.2708L14.0813 20.818L13.7438 20.4805C13.6818 20.4185 13.6005 20.3794 13.5133 20.3696C13.4261 20.3598 13.3382 20.38 13.2639 20.4267C12.9697 20.6126 12.6459 20.747 12.3065 20.8242C12.221 20.8437 12.1446 20.8916 12.0899 20.9601C12.0352 21.0287 12.0055 21.1138 12.0055 21.2015V21.6779H11.2295V21.2015C11.2295 21.1138 11.1997 21.0287 11.145 20.9601C11.0903 20.8916 11.014 20.8437 10.9285 20.8242C10.5891 20.747 10.2653 20.6126 9.97105 20.4267C9.89681 20.38 9.80889 20.3598 9.7217 20.3696C9.63451 20.3794 9.55322 20.4185 9.49118 20.4805L9.15373 20.818L8.60652 20.2708L8.94398 19.9333C9.00605 19.8712 9.04514 19.7898 9.05485 19.7026C9.06455 19.6153 9.04429 19.5273 8.99738 19.4531C8.81181 19.1588 8.67742 18.8352 8.59995 18.496C8.58048 18.4105 8.53254 18.3342 8.46398 18.2795C8.39543 18.2248 8.31033 18.195 8.22263 18.195H7.74663V17.421H8.22263C8.31033 17.421 8.39543 17.3912 8.46398 17.3365C8.53254 17.2818 8.58048 17.2054 8.59995 17.1199C8.67742 16.7807 8.81181 16.4571 8.99738 16.1629C9.04429 16.0886 9.06455 16.0007 9.05485 15.9134C9.04514 15.8261 9.00605 15.7447 8.94398 15.6826L8.60652 15.3452L9.15373 14.7979L9.49118 15.1354C9.55322 15.1974 9.63451 15.2365 9.7217 15.2463C9.80889 15.2561 9.89681 15.236 9.97105 15.1892C10.2653 15.0033 10.5891 14.8689 10.9285 14.7918C11.014 14.7723 11.0904 14.7243 11.1452 14.6556C11.1999 14.587 11.2296 14.5018 11.2295 14.414V13.938H12.0035V14.414C12.0034 14.5018 12.0332 14.587 12.0879 14.6556C12.1426 14.7243 12.219 14.7723 12.3046 14.7918C12.644 14.8689 12.9678 15.0033 13.262 15.1892C13.3362 15.236 13.4242 15.2561 13.5114 15.2463C13.5985 15.2365 13.6798 15.1974 13.7419 15.1354L14.0793 14.7979L14.6265 15.3452L14.2891 15.6826C14.227 15.7447 14.1879 15.8261 14.1782 15.9134C14.1685 16.0007 14.1888 16.0886 14.2357 16.1629C14.4219 16.457 14.557 16.7806 14.635 17.1199C14.6544 17.2051 14.7021 17.2812 14.7702 17.3359C14.8384 17.3905 14.9231 17.4205 15.0104 17.421H15.4864V18.195H15.0104C14.9231 18.1954 14.8384 18.2254 14.7702 18.2801C14.7021 18.3347 14.6544 18.4109 14.635 18.496Z" fill="black"/>
<path d="M11.6159 15.4859C11.1566 15.4859 10.7077 15.6221 10.3259 15.8772C9.94404 16.1324 9.64643 16.495 9.47069 16.9193C9.29495 17.3436 9.24897 17.8104 9.33856 18.2609C9.42815 18.7113 9.6493 19.125 9.97403 19.4497C10.2988 19.7745 10.7125 19.9956 11.1629 20.0852C11.6133 20.1748 12.0802 20.1288 12.5044 19.9531C12.9287 19.7773 13.2914 19.4797 13.5465 19.0979C13.8016 18.716 13.9378 18.2671 13.9378 17.8079C13.9372 17.1922 13.6924 16.602 13.2571 16.1667C12.8217 15.7314 12.2315 15.4865 11.6159 15.4859ZM11.6159 19.3558C11.3097 19.3558 11.0104 19.2651 10.7559 19.095C10.5013 18.9249 10.3029 18.6831 10.1858 18.4003C10.0686 18.1174 10.0379 17.8062 10.0977 17.5059C10.1574 17.2056 10.3048 16.9298 10.5213 16.7133C10.7378 16.4968 11.0136 16.3494 11.3139 16.2896C11.6142 16.2299 11.9254 16.2606 12.2083 16.3777C12.4911 16.4949 12.7329 16.6933 12.903 16.9479C13.0731 17.2024 13.1638 17.5017 13.1638 17.8079C13.1638 18.2184 13.0007 18.6122 12.7105 18.9025C12.4202 19.1928 12.0264 19.3558 11.6159 19.3558ZM20.5166 4.65014H21.2906C21.2897 3.82933 20.9632 3.0424 20.3828 2.462C19.8024 1.8816 19.0155 1.55512 18.1947 1.5542V2.32818C18.8103 2.3288 19.4006 2.57363 19.8359 3.00895C20.2712 3.44426 20.516 4.03451 20.5166 4.65014ZM19.9361 16.6469C19.5769 16.6469 19.2324 16.5042 18.9784 16.2502C18.7244 15.9962 18.5817 15.6517 18.5817 15.2924V14.7119H17.8077V15.2924C17.8083 15.8567 18.0328 16.3978 18.4318 16.7968C18.8308 17.1958 19.3718 17.4203 19.9361 17.4209C20.398 17.4209 20.841 17.6044 21.1675 17.9309C21.4941 18.2575 21.6776 18.7005 21.6776 19.1623C21.6776 19.6242 21.4941 20.0672 21.1675 20.3937C20.841 20.7203 20.398 20.9038 19.9361 20.9038H15.8728V21.6778H19.9361C20.6033 21.6778 21.2431 21.4128 21.7148 20.941C22.1866 20.4693 22.4516 19.8295 22.4516 19.1623C22.4516 18.4952 22.1866 17.8554 21.7148 17.3837C21.2431 16.9119 20.6033 16.6469 19.9361 16.6469Z" fill="black"/>
</svg>
