<svg width="202" height="184" viewBox="0 0 202 184" fill="none" xmlns="http://www.w3.org/2000/svg">
<path d="M188.913 0.501953H63.403C60.4004 0.501953 57.9663 2.93603 57.9663 5.93861V71.8613C57.9663 74.8638 60.4004 77.2979 63.403 77.2979H188.913C191.916 77.2979 194.35 74.8638 194.35 71.8613V5.93861C194.35 2.93603 191.916 0.501953 188.913 0.501953Z" fill="#F5F5F5"/>
<path d="M188.913 77.8H63.4131C61.8393 77.8013 60.3292 77.1785 59.2141 76.068C58.0989 74.9575 57.4697 73.4501 57.4644 71.8764V5.93869C57.4657 4.36407 58.0918 2.85432 59.2052 1.74089C60.3186 0.627468 61.8284 0.00136328 63.403 3.39215e-05H188.903C189.685 -0.00260699 190.46 0.148981 191.183 0.44612C191.907 0.74326 192.564 1.18012 193.119 1.73171C193.673 2.28329 194.113 2.93878 194.414 3.66066C194.715 4.38254 194.87 5.15665 194.872 5.93869V71.8764C194.865 73.4515 194.234 74.9596 193.117 76.0701C192 77.1805 190.488 77.8027 188.913 77.8ZM63.4131 0.993996C62.1047 0.995324 60.8503 1.51565 59.9252 2.44079C59.0001 3.36593 58.4797 4.62031 58.4784 5.92865V71.8764C58.4797 73.1847 59.0001 74.4391 59.9252 75.3643C60.8503 76.2894 62.1047 76.8097 63.4131 76.8111H188.913C189.563 76.813 190.206 76.6869 190.807 76.4398C191.408 76.1928 191.954 75.8297 192.414 75.3714C192.874 74.913 193.239 74.3684 193.489 73.7687C193.738 73.169 193.867 72.5259 193.868 71.8764V5.93869C193.866 4.63035 193.346 3.37597 192.421 2.45083C191.496 1.52569 190.241 1.00536 188.933 1.00403L63.4131 0.993996Z" fill="#E0E0E0"/>
<path d="M57.6299 47.6197H79.2159V58.8244H98.8842V71.9667H165.65V51.1337H179.43V23.9956H194.018V69.6776C194.018 71.6667 193.228 73.5743 191.822 74.9808C190.415 76.3873 188.507 77.1775 186.518 77.1775H65.7974C64.7247 77.1781 63.6623 76.9673 62.6711 76.5571C61.6798 76.1469 60.7792 75.5453 60.0206 74.7867C59.2621 74.0282 58.6605 73.1275 58.2503 72.1363C57.84 71.1451 57.6292 70.0827 57.6299 69.0099V47.6197Z" fill="#E0E0E0"/>
<path d="M65.3559 88.101C65.3559 88.8741 65.1802 101.961 64.889 124.14V124.18H64.8539H0.407133H0.356934V79.1704H0.407133H36.2499H36.2801V79.2056C36.3982 80.4471 36.8357 81.637 37.5501 82.6593C38.2217 83.6378 39.0633 84.4879 40.035 85.1693C41.845 86.3637 43.9067 87.1231 46.059 87.3881C47.9299 87.6352 49.8144 87.7643 51.7015 87.7747L56.4655 87.8901L65.3358 88.111L56.4705 87.9404L51.7165 87.8349C49.828 87.828 47.9418 87.7023 46.069 87.4584C43.9024 87.1979 41.8262 86.4365 40.0049 85.2346C39.0241 84.5556 38.1738 83.7053 37.4949 82.7246C36.7697 81.6842 36.3269 80.4734 36.2098 79.2106L36.2499 79.2457H0.407133L0.457334 79.1955V124.119L0.407133 124.064L64.8539 124.084L64.8137 124.125C65.1501 101.961 65.3559 88.8741 65.3559 88.101Z" fill="#EBEBEB"/>
<path d="M106.173 183.516C106.173 183.516 106.173 183.275 106.173 182.818C106.173 182.362 106.173 181.684 106.173 180.81C106.173 179.038 106.173 176.438 106.173 173.1C106.173 166.433 106.143 156.82 106.118 145.023L106.219 145.123L40.5068 145.153L40.6373 145.023C40.6373 158.652 40.6373 171.674 40.6373 183.526L40.5168 183.406L87.7902 183.461L101.344 183.496H104.964H105.897H106.219H105.912H104.994H101.399L87.8454 183.526L40.4917 183.586H40.3662V183.466C40.3662 171.614 40.3662 158.592 40.3662 144.963V144.832H40.5018L106.214 144.862H106.319V144.963C106.319 156.785 106.274 166.418 106.264 173.105C106.264 176.433 106.264 179.023 106.239 180.79C106.239 181.664 106.239 182.331 106.239 182.798C106.239 183.265 106.173 183.516 106.173 183.516Z" fill="#E0E0E0"/>
<path d="M103.252 147.342C103.252 147.382 102.946 147.392 102.75 147.759C102.69 147.857 102.652 147.967 102.64 148.082C102.628 148.197 102.641 148.313 102.68 148.421C102.745 148.538 102.841 148.635 102.958 148.7C103.075 148.765 103.207 148.796 103.341 148.79C103.475 148.784 103.604 148.74 103.714 148.664C103.824 148.589 103.911 148.484 103.965 148.361C103.991 148.249 103.993 148.133 103.969 148.02C103.946 147.907 103.898 147.801 103.829 147.708C103.686 147.532 103.491 147.404 103.272 147.342C103.272 147.342 103.342 147.297 103.478 147.312C103.674 147.342 103.852 147.442 103.98 147.593C104.081 147.704 104.153 147.838 104.192 147.983C104.23 148.128 104.233 148.28 104.201 148.426C104.139 148.604 104.026 148.759 103.876 148.871C103.725 148.983 103.545 149.048 103.357 149.057C103.169 149.065 102.984 149.018 102.823 148.92C102.663 148.821 102.536 148.678 102.459 148.507C102.413 148.364 102.402 148.213 102.426 148.065C102.451 147.918 102.51 147.778 102.599 147.658C102.711 147.497 102.877 147.382 103.066 147.332C103.177 147.302 103.252 147.327 103.252 147.342Z" fill="#E0E0E0"/>
<path d="M43.2681 147.342C43.2681 147.382 42.9618 147.392 42.7661 147.759C42.7057 147.857 42.668 147.967 42.6558 148.082C42.6437 148.197 42.6573 148.313 42.6958 148.421C42.7536 148.545 42.8486 148.647 42.9675 148.713C43.0863 148.78 43.223 148.808 43.3584 148.793C43.4945 148.796 43.6282 148.756 43.74 148.678C43.8519 148.601 43.9363 148.49 43.9809 148.361C44.0088 148.249 44.0111 148.132 43.9876 148.019C43.9641 147.906 43.9155 147.8 43.8453 147.708C43.703 147.531 43.5079 147.402 43.2881 147.342C43.2881 147.342 43.3584 147.297 43.4939 147.312C43.6896 147.342 43.8679 147.442 43.9959 147.593C44.0972 147.704 44.1705 147.837 44.2098 147.982C44.2491 148.127 44.2532 148.279 44.2218 148.426C44.1593 148.603 44.0453 148.758 43.8945 148.87C43.7437 148.982 43.563 149.046 43.3754 149.055C43.1878 149.063 43.0019 149.016 42.8415 148.918C42.6811 148.82 42.5535 148.677 42.4749 148.507C42.429 148.364 42.4179 148.213 42.4423 148.065C42.4668 147.918 42.5261 147.778 42.6154 147.658C42.7282 147.496 42.8958 147.38 43.0873 147.332C43.1928 147.302 43.2681 147.327 43.2681 147.342Z" fill="#E0E0E0"/>
<path d="M103.327 179.957C103.327 180.002 103.021 180.012 102.825 180.379C102.765 180.477 102.727 180.587 102.715 180.702C102.703 180.817 102.716 180.933 102.755 181.041C102.813 181.165 102.908 181.267 103.027 181.334C103.145 181.4 103.282 181.428 103.417 181.413C103.553 181.413 103.685 181.372 103.797 181.295C103.908 181.218 103.993 181.108 104.04 180.981C104.067 180.869 104.069 180.753 104.045 180.64C104.022 180.527 103.974 180.421 103.904 180.329C103.653 179.982 103.337 180.002 103.347 179.957C103.357 179.912 103.417 179.912 103.553 179.927C103.749 179.961 103.926 180.062 104.055 180.213C104.155 180.324 104.228 180.456 104.266 180.6C104.305 180.745 104.308 180.896 104.276 181.041C104.215 181.219 104.102 181.374 103.952 181.487C103.802 181.6 103.621 181.665 103.434 181.675C103.246 181.684 103.06 181.636 102.9 181.539C102.739 181.441 102.612 181.298 102.534 181.127C102.488 180.984 102.477 180.833 102.501 180.686C102.526 180.538 102.585 180.398 102.675 180.278C102.787 180.117 102.952 180 103.141 179.947C103.252 179.922 103.327 179.947 103.327 179.957Z" fill="#E0E0E0"/>
<path d="M111.997 147.342C111.997 147.382 111.691 147.392 111.495 147.759C111.435 147.857 111.397 147.967 111.384 148.082C111.371 148.196 111.383 148.312 111.42 148.421C111.484 148.54 111.58 148.637 111.698 148.704C111.815 148.77 111.949 148.801 112.083 148.795C112.218 148.789 112.348 148.745 112.459 148.668C112.57 148.591 112.657 148.485 112.71 148.361C112.736 148.249 112.738 148.133 112.714 148.02C112.691 147.907 112.643 147.801 112.574 147.708C112.43 147.53 112.233 147.402 112.012 147.342C112.012 147.342 112.082 147.297 112.223 147.312C112.418 147.344 112.595 147.444 112.725 147.593C112.824 147.705 112.896 147.839 112.935 147.983C112.973 148.128 112.977 148.28 112.946 148.426C112.884 148.604 112.771 148.759 112.62 148.871C112.47 148.983 112.289 149.048 112.102 149.057C111.914 149.065 111.728 149.018 111.568 148.92C111.408 148.821 111.281 148.678 111.204 148.507C111.157 148.364 111.145 148.213 111.169 148.065C111.194 147.917 111.254 147.778 111.344 147.658C111.454 147.495 111.62 147.379 111.811 147.332C111.927 147.302 111.997 147.327 111.997 147.342Z" fill="#E0E0E0"/>
<path d="M112.072 179.957C112.072 180.002 111.766 180.012 111.57 180.379C111.512 180.478 111.476 180.588 111.464 180.703C111.452 180.817 111.464 180.932 111.5 181.041C111.558 181.165 111.653 181.267 111.772 181.334C111.89 181.4 112.027 181.428 112.163 181.413C112.299 181.414 112.432 181.373 112.545 181.296C112.657 181.219 112.743 181.109 112.79 180.981C112.817 180.869 112.819 180.753 112.795 180.64C112.772 180.527 112.724 180.421 112.655 180.329C112.404 179.982 112.087 180.002 112.092 179.957C112.097 179.912 112.163 179.912 112.298 179.927C112.494 179.959 112.672 180.061 112.8 180.213C112.901 180.323 112.975 180.456 113.014 180.6C113.053 180.744 113.057 180.895 113.026 181.041C112.964 181.219 112.85 181.373 112.7 181.486C112.549 181.598 112.369 181.663 112.181 181.672C111.994 181.681 111.808 181.634 111.647 181.537C111.486 181.44 111.358 181.297 111.279 181.127C111.234 180.984 111.224 180.832 111.249 180.685C111.274 180.537 111.334 180.398 111.425 180.278C111.536 180.116 111.701 179.999 111.891 179.947C111.997 179.922 112.072 179.947 112.072 179.957Z" fill="#E0E0E0"/>
<path d="M133.974 147.342C133.974 147.382 133.668 147.392 133.472 147.759C133.412 147.857 133.374 147.967 133.361 148.082C133.348 148.196 133.361 148.312 133.397 148.421C133.461 148.54 133.558 148.637 133.675 148.704C133.793 148.77 133.926 148.801 134.061 148.795C134.195 148.789 134.325 148.745 134.436 148.668C134.547 148.591 134.634 148.485 134.687 148.361C134.713 148.249 134.715 148.133 134.692 148.02C134.668 147.907 134.62 147.801 134.551 147.708C134.407 147.53 134.211 147.402 133.989 147.342C133.989 147.342 134.059 147.297 134.2 147.312C134.395 147.343 134.573 147.443 134.702 147.593C134.802 147.705 134.874 147.839 134.912 147.983C134.95 148.128 134.954 148.28 134.923 148.426C134.861 148.604 134.748 148.759 134.598 148.871C134.447 148.983 134.267 149.048 134.079 149.057C133.892 149.065 133.706 149.018 133.546 148.92C133.386 148.821 133.258 148.678 133.181 148.507C133.135 148.364 133.124 148.213 133.148 148.065C133.173 147.918 133.232 147.778 133.322 147.658C133.431 147.495 133.598 147.379 133.788 147.332C133.904 147.302 133.979 147.327 133.974 147.342Z" fill="#E0E0E0"/>
<path d="M134.049 179.957C134.049 180.002 133.743 180.012 133.547 180.379C133.487 180.477 133.45 180.587 133.437 180.702C133.424 180.816 133.436 180.932 133.472 181.041C133.537 181.16 133.633 181.257 133.75 181.323C133.868 181.39 134.001 181.421 134.136 181.415C134.271 181.409 134.401 181.365 134.511 181.288C134.622 181.211 134.709 181.105 134.762 180.981C134.793 180.866 134.797 180.746 134.774 180.63C134.752 180.513 134.703 180.403 134.632 180.308C134.381 179.962 134.064 179.982 134.069 179.937C134.074 179.892 134.14 179.892 134.28 179.907C134.476 179.942 134.653 180.043 134.782 180.193C134.882 180.304 134.953 180.437 134.992 180.581C135.03 180.725 135.034 180.875 135.003 181.021C134.942 181.199 134.829 181.354 134.679 181.467C134.529 181.58 134.349 181.645 134.161 181.654C133.974 181.663 133.788 181.616 133.627 181.519C133.467 181.421 133.339 181.277 133.261 181.106C133.214 180.964 133.202 180.813 133.227 180.665C133.251 180.517 133.311 180.378 133.402 180.258C133.513 180.096 133.679 179.978 133.869 179.927C133.979 179.922 134.049 179.947 134.049 179.957Z" fill="#E0E0E0"/>
<path d="M43.1924 179.957C43.1924 180.002 42.8861 180.012 42.6904 180.379C42.63 180.477 42.5923 180.587 42.5802 180.702C42.568 180.817 42.5816 180.933 42.6201 181.041C42.685 181.158 42.7813 181.255 42.8981 181.32C43.015 181.385 43.1477 181.416 43.2813 181.41C43.4149 181.404 43.5442 181.36 43.6544 181.284C43.7646 181.209 43.8515 181.104 43.9052 180.981C43.9367 180.866 43.9408 180.745 43.9173 180.629C43.8938 180.512 43.8432 180.402 43.7697 180.308C43.5187 179.962 43.2024 179.982 43.2074 179.937C43.2124 179.892 43.2777 179.892 43.4132 179.907C43.6093 179.939 43.7874 180.041 43.9152 180.193C44.0164 180.303 44.0897 180.435 44.129 180.579C44.1683 180.724 44.1725 180.875 44.1411 181.021C44.0791 181.198 43.9656 181.353 43.8151 181.466C43.6646 181.578 43.484 181.643 43.2964 181.652C43.1088 181.661 42.9227 181.614 42.762 181.517C42.6013 181.42 42.4732 181.277 42.3942 181.106C42.3495 180.964 42.339 180.813 42.3634 180.666C42.3878 180.518 42.4465 180.379 42.5347 180.258C42.6488 180.096 42.8156 179.979 43.0066 179.927C43.117 179.922 43.1924 179.947 43.1924 179.957Z" fill="#E0E0E0"/>
<path d="M127.293 183.516C127.293 183.516 127.293 183.446 127.293 183.32C127.293 183.195 127.293 183.004 127.293 182.768C127.293 182.266 127.293 181.553 127.293 180.63C127.293 178.762 127.293 176.051 127.258 172.643C127.258 165.826 127.223 156.217 127.203 145.033L127.323 145.153H108.684L108.814 145.023C108.814 159.912 108.789 173.471 108.779 183.526L108.684 183.431L122.288 183.481L126.013 183.506H126.987H127.323H127.007H126.048L122.348 183.531L108.684 183.581H108.588V183.486C108.588 173.446 108.563 159.892 108.553 144.983V144.852H127.449V144.978C127.423 156.217 127.403 165.851 127.388 172.693C127.388 176.086 127.363 178.787 127.353 180.65C127.353 181.563 127.353 182.271 127.353 182.763C127.353 182.994 127.353 183.17 127.353 183.3C127.34 183.374 127.319 183.446 127.293 183.516Z" fill="#E0E0E0"/>
<path d="M126.866 163.602C126.866 163.677 122.905 163.732 118.031 163.732C113.156 163.732 109.19 163.677 109.19 163.602C109.19 163.526 113.146 163.471 118.031 163.471C122.915 163.471 126.866 163.531 126.866 163.602Z" fill="#E0E0E0"/>
<path d="M184.455 183.516C184.455 183.516 184.455 183.27 184.455 182.808C184.455 182.347 184.455 181.659 184.455 180.765C184.455 178.973 184.455 176.353 184.43 172.999C184.43 166.303 184.395 156.689 184.375 145.013L184.48 145.118L130.365 145.143L130.495 145.013C130.495 158.798 130.495 171.88 130.495 183.516L130.375 183.396L169.39 183.456L180.51 183.486H183.466H184.229H184.495H184.244H183.497H180.56L169.471 183.521L130.375 183.582H130.254V183.461C130.254 171.825 130.254 158.743 130.254 144.958V144.827H130.39L184.506 144.852H184.611V144.958C184.611 156.659 184.566 166.298 184.556 173.014C184.556 176.353 184.556 178.968 184.526 180.755C184.526 181.639 184.526 182.311 184.526 182.763C184.526 183.215 184.455 183.516 184.455 183.516Z" fill="#E0E0E0"/>
<path d="M1.88281 9.94461V69.0852H45.8932V9.93457C45.8932 9.93457 1.88281 10.4215 1.88281 9.94461Z" fill="#E0E0E0"/>
<path d="M1.88281 10.0701V19.2667L45.9082 19.5378V9.94458L1.88281 10.0701Z" fill="#EBEBEB"/>
<path d="M17.8066 14.1765V15.9787H31.9028V14.4175C31.9028 14.4175 18.1681 14.1765 17.8066 14.1765Z" fill="white"/>
<path d="M18.1178 23.5037H4.33789V38.2825H18.1178V23.5037Z" fill="#FAFAFA"/>
<path d="M16.1948 53.7591H16.8022H18.5492H24.9547L24.9146 53.7993C24.9146 49.4018 24.9146 43.5886 24.9146 37.2333V33.4783H24.9648H37.6352L37.5951 33.5185C37.6403 30.7776 37.6754 28.5437 37.7005 26.9925C37.7005 26.2345 37.7005 25.6371 37.7356 25.2054C37.7708 24.7737 37.7356 24.5779 37.7356 24.5779C37.7356 24.5779 37.7356 24.7937 37.7356 25.2054C37.7356 25.617 37.7356 26.2094 37.7356 26.9925C37.7356 28.5638 37.6955 30.7977 37.6654 33.5185V33.5587H37.6252H24.9547L25.0099 33.5034V37.2082C25.0099 43.5736 25.0099 49.3867 25.0099 53.7742V53.8043H24.9698H18.5643H16.8173L16.1948 53.7591Z" fill="#FAFAFA"/>
<path d="M42.1383 58.1368H41.0941H38.1423H27.6003H27.5552V58.0916C27.5552 53.8447 27.5552 48.8347 27.5552 43.4884V36.6662H36.295L36.2548 36.7114C36.2548 32.6251 36.2548 29.2266 36.2548 26.832C36.2548 25.6574 36.2548 24.7287 36.2548 24.071C36.2548 23.4134 36.2548 23.0972 36.2548 23.0972C36.2548 23.0972 36.2548 23.4385 36.2548 24.071C36.2548 24.7036 36.2548 25.6574 36.2548 26.832C36.2548 29.2266 36.2548 32.6251 36.2548 36.7114V36.7566H27.52L27.5702 36.7064C27.5702 38.8851 27.5702 41.1742 27.5702 43.5236C27.5702 48.8699 27.5702 53.8798 27.5702 58.1267L27.525 58.0816H38.067H41.0188L42.1383 58.1368Z" fill="#EBEBEB"/>
<path d="M4.42822 41.5105V42.896H15.5776V41.2344L4.42822 41.5105Z" fill="#FAFAFA"/>
<path d="M4.33789 43.925V45.3156H15.4873V43.6489L4.33789 43.925Z" fill="#FAFAFA"/>
<path d="M201.398 124.14C201.398 123.392 201.398 110.586 201.358 88.8139L201.398 88.854H124.496L124.552 88.8038C124.552 101.223 124.552 113.176 124.552 124.13L124.501 124.079L201.408 124.13L124.501 124.18H124.451V88.7637H124.506H201.408H201.443V88.8038C201.428 110.566 201.398 123.392 201.398 124.14Z" fill="#EBEBEB"/>
</svg>
